<?xml version="1.0" encoding="UTF-8" standalone="no"?>
<!DOCTYPE svg PUBLIC "-//W3C//DTD SVG 1.1//EN" "http://www.w3.org/Graphics/SVG/1.1/DTD/svg11.dtd">
<svg width="100%" height="100%" viewBox="0 0 190 38" version="1.1" xmlns="http://www.w3.org/2000/svg" xmlns:xlink="http://www.w3.org/1999/xlink" xml:space="preserve" xmlns:serif="http://www.serif.com/" style="fill-rule:evenodd;clip-rule:evenodd;stroke-linejoin:round;stroke-miterlimit:2;">
    <g transform="matrix(1,0,0,1,-286.284,-219.534)">
        <g transform="matrix(3.45337,0,0,3.45337,-346.224,-315.271)">
            <path d="M190.258,165.628C190.094,165.656 189.93,165.675 189.766,165.685C189.602,165.695 189.452,165.7 189.316,165.7C189.184,165.7 189.028,165.695 188.848,165.685C188.668,165.675 188.496,165.656 188.332,165.628L188.332,157.504L188.416,157.432L190.246,157.432L190.246,158.002C190.246,158.334 190.248,158.671 190.252,159.013C190.256,159.355 190.258,159.684 190.258,160L190.258,165.628ZM193.546,157.432C193.578,157.536 193.6,157.657 193.612,157.795C193.624,157.933 193.63,158.058 193.63,158.17C193.63,158.482 193.545,158.708 193.375,158.848C193.205,158.988 192.948,159.058 192.604,159.058L191.104,159.058C190.804,159.058 190.521,159.056 190.255,159.052C189.989,159.048 189.724,159.046 189.46,159.046L189.46,157.432L193.546,157.432ZM192.814,160.762C192.85,160.874 192.876,161.006 192.892,161.158C192.908,161.31 192.916,161.438 192.916,161.542C192.916,161.65 192.908,161.78 192.892,161.932C192.876,162.084 192.85,162.218 192.814,162.334L190.486,162.334C190.314,162.334 190.14,162.331 189.964,162.325C189.788,162.319 189.642,162.314 189.526,162.31L189.526,160.786C189.642,160.778 189.788,160.772 189.964,160.768C190.14,160.764 190.314,160.762 190.486,160.762L192.814,160.762Z" style="fill:white;fill-rule:nonzero;"/>
            <path d="M196.714,165.628C196.582,165.652 196.433,165.67 196.267,165.682C196.101,165.694 195.938,165.7 195.778,165.7C195.622,165.7 195.461,165.694 195.295,165.682C195.129,165.67 194.976,165.652 194.836,165.628L194.836,161.656C194.836,161.456 194.795,161.29 194.713,161.158C194.631,161.026 194.484,160.96 194.272,160.96L194.092,160.96C194.04,160.756 194.014,160.544 194.014,160.324C194.014,160.22 194.02,160.109 194.032,159.991C194.044,159.873 194.064,159.76 194.092,159.652C194.276,159.632 194.465,159.617 194.659,159.607C194.853,159.597 195.016,159.592 195.148,159.592L195.406,159.592C195.81,159.592 196.129,159.721 196.363,159.979C196.597,160.237 196.714,160.586 196.714,161.026L196.714,165.628ZM194.476,157.954C194.476,157.842 194.488,157.725 194.512,157.603C194.536,157.481 194.57,157.364 194.614,157.252C194.718,157.2 194.853,157.156 195.019,157.12C195.185,157.084 195.348,157.066 195.508,157.066C195.672,157.066 195.839,157.084 196.009,157.12C196.179,157.156 196.31,157.2 196.402,157.252C196.446,157.364 196.48,157.483 196.504,157.609C196.528,157.735 196.54,157.85 196.54,157.954C196.54,158.062 196.528,158.178 196.504,158.302C196.48,158.426 196.446,158.542 196.402,158.65C196.31,158.702 196.179,158.746 196.009,158.782C195.839,158.818 195.672,158.836 195.508,158.836C195.348,158.836 195.182,158.819 195.01,158.785C194.838,158.751 194.706,158.706 194.614,158.65C194.57,158.542 194.536,158.426 194.512,158.302C194.488,158.178 194.476,158.062 194.476,157.954Z" style="fill:white;fill-rule:nonzero;"/>
            <path d="M202.174,159.658C202.174,159.878 202.134,160.159 202.054,160.501C201.974,160.843 201.858,161.146 201.706,161.41C201.602,161.37 201.499,161.342 201.397,161.326C201.295,161.31 201.192,161.296 201.088,161.284C200.928,161.284 200.784,161.313 200.656,161.371C200.528,161.429 200.412,161.514 200.308,161.626C200.204,161.738 200.106,161.876 200.014,162.04C199.922,162.204 199.834,162.392 199.75,162.604L199.54,162.322C199.56,161.99 199.602,161.661 199.666,161.335C199.73,161.009 199.828,160.712 199.96,160.444C200.092,160.176 200.273,159.961 200.503,159.799C200.733,159.637 201.024,159.556 201.376,159.556C201.56,159.556 201.709,159.565 201.823,159.583C201.937,159.601 202.054,159.626 202.174,159.658ZM197.776,160.51C197.808,160.342 197.882,160.161 197.998,159.967C198.114,159.773 198.23,159.632 198.346,159.544C198.902,159.584 199.321,159.789 199.603,160.159C199.885,160.529 200.052,161.014 200.104,161.614L200.104,165.628C199.972,165.652 199.824,165.67 199.66,165.682C199.496,165.694 199.332,165.7 199.168,165.7C199.012,165.7 198.851,165.694 198.685,165.682C198.519,165.67 198.366,165.652 198.226,165.628L198.226,161.752C198.226,161.396 198.175,161.117 198.073,160.915C197.971,160.713 197.872,160.578 197.776,160.51Z" style="fill:white;fill-rule:nonzero;"/>
            <path d="M203.566,163.24L203.566,161.95L205.828,161.95L205.828,161.812C205.828,161.628 205.802,161.459 205.75,161.305C205.698,161.151 205.615,161.027 205.501,160.933C205.387,160.839 205.234,160.792 205.042,160.792C204.75,160.792 204.545,160.912 204.427,161.152C204.309,161.392 204.25,161.762 204.25,162.262L204.25,162.826C204.25,163.098 204.274,163.352 204.322,163.588C204.37,163.824 204.472,164.014 204.628,164.158C204.784,164.302 205.022,164.374 205.342,164.374C205.614,164.374 205.881,164.339 206.143,164.269C206.405,164.199 206.656,164.114 206.896,164.014C207.036,164.15 207.148,164.322 207.232,164.53C207.316,164.738 207.372,164.936 207.4,165.124C207.096,165.344 206.733,165.513 206.311,165.631C205.889,165.749 205.464,165.808 205.036,165.808C204.508,165.808 204.072,165.721 203.728,165.547C203.384,165.373 203.112,165.137 202.912,164.839C202.712,164.541 202.571,164.205 202.489,163.831C202.407,163.457 202.366,163.072 202.366,162.676C202.366,162.072 202.457,161.527 202.639,161.041C202.821,160.555 203.11,160.17 203.506,159.886C203.902,159.602 204.418,159.46 205.054,159.46C205.582,159.46 206.032,159.572 206.404,159.796C206.776,160.02 207.061,160.323 207.259,160.705C207.457,161.087 207.556,161.52 207.556,162.004C207.556,162.272 207.543,162.495 207.517,162.673C207.491,162.851 207.45,163.04 207.394,163.24L203.566,163.24Z" style="fill:white;fill-rule:nonzero;"/>
        </g>
        <g transform="matrix(3.45337,0,0,3.45337,-271.892,-315.271)">
            <path d="M188.332,165.568C188.332,164.732 188.804,164.243 189.438,163.937C189.937,163.696 191.794,163.585 191.119,163.368C189.674,162.903 192.702,163.069 192.702,162.772C192.702,162.049 188.287,162.561 188.287,161.623C188.287,161.17 189.668,161.287 189.668,161.043C189.668,160.831 188.332,160.859 188.332,160.648C188.332,159.443 192.903,159.351 192.903,158.85C192.903,158.303 188.332,158.317 188.332,157.77C188.332,157.222 188.332,157.492 188.332,157.492L188.416,157.408C188.896,157.396 189.371,157.385 189.841,157.375C190.311,157.365 190.758,157.36 191.182,157.36C191.742,157.36 192.232,157.437 192.652,157.591C193.072,157.745 193.4,157.983 193.636,158.305C193.872,158.627 193.99,159.04 193.99,159.544C193.99,159.836 193.923,160.11 193.789,160.366C193.655,160.622 193.478,160.834 193.258,161.002C193.038,161.17 192.794,161.27 192.526,161.302L192.526,161.11C192.85,161.126 193.153,161.236 193.435,161.44C193.717,161.644 193.944,161.907 194.116,162.229C194.288,162.551 194.374,162.898 194.374,163.27C194.374,163.83 194.251,164.289 194.005,164.647C193.759,165.005 193.412,165.27 192.964,165.442C192.516,165.614 191.986,165.7 191.374,165.7C190.91,165.7 190.429,165.695 189.931,165.685C189.433,165.675 188.928,165.664 188.416,165.652C188.416,165.652 188.332,165.661 188.332,165.568Z" style="fill:white;fill-rule:nonzero;"/>
            <path d="M196.354,163.24L196.354,161.95L198.616,161.95L198.616,161.812C198.616,161.628 198.59,161.459 198.538,161.305C198.486,161.151 198.403,161.027 198.289,160.933C198.175,160.839 198.022,160.792 197.83,160.792C197.538,160.792 197.333,160.912 197.215,161.152C197.097,161.392 197.038,161.762 197.038,162.262L197.038,162.826C197.038,163.098 197.062,163.352 197.11,163.588C197.158,163.824 197.26,164.014 197.416,164.158C197.572,164.302 197.81,164.374 198.13,164.374C198.402,164.374 198.669,164.339 198.931,164.269C199.193,164.199 199.444,164.114 199.684,164.014C199.824,164.15 199.936,164.322 200.02,164.53C200.104,164.738 200.16,164.936 200.188,165.124C199.884,165.344 199.521,165.513 199.099,165.631C198.677,165.749 198.252,165.808 197.824,165.808C197.296,165.808 196.86,165.721 196.516,165.547C196.172,165.373 195.9,165.137 195.7,164.839C195.5,164.541 195.359,164.205 195.277,163.831C195.195,163.457 195.154,163.072 195.154,162.676C195.154,162.072 195.245,161.527 195.427,161.041C195.609,160.555 195.898,160.17 196.294,159.886C196.69,159.602 197.206,159.46 197.842,159.46C198.37,159.46 198.82,159.572 199.192,159.796C199.564,160.02 199.849,160.323 200.047,160.705C200.245,161.087 200.344,161.52 200.344,162.004C200.344,162.272 200.331,162.495 200.305,162.673C200.279,162.851 200.238,163.04 200.182,163.24L196.354,163.24Z" style="fill:white;fill-rule:nonzero;"/>
            <path d="M201.112,163.99C201.112,163.506 201.224,163.111 201.448,162.805C201.672,162.499 201.965,162.272 202.327,162.124C202.689,161.976 203.076,161.902 203.488,161.902C203.668,161.902 203.895,161.906 204.169,161.914C204.443,161.922 204.69,161.948 204.91,161.992L204.91,163.18C204.738,163.14 204.531,163.117 204.289,163.111C204.047,163.105 203.846,163.102 203.686,163.102C203.418,163.102 203.226,163.173 203.11,163.315C202.994,163.457 202.936,163.64 202.936,163.864C202.936,164.024 202.986,164.157 203.086,164.263C203.186,164.369 203.32,164.422 203.488,164.422C203.728,164.422 203.972,164.336 204.22,164.164C204.468,163.992 204.678,163.756 204.85,163.456L205.114,164.644C204.958,164.828 204.78,165.01 204.58,165.19C204.38,165.37 204.146,165.518 203.878,165.634C203.61,165.75 203.296,165.808 202.936,165.808C202.524,165.808 202.183,165.716 201.913,165.532C201.643,165.348 201.442,165.116 201.31,164.836C201.178,164.556 201.112,164.274 201.112,163.99ZM206.554,164.764C206.522,164.928 206.448,165.106 206.332,165.298C206.216,165.49 206.1,165.632 205.984,165.724C205.632,165.716 205.341,165.636 205.111,165.484C204.881,165.332 204.705,165.145 204.583,164.923C204.461,164.701 204.382,164.484 204.346,164.272L204.346,161.704C204.346,161.452 204.283,161.262 204.157,161.134C204.031,161.006 203.832,160.942 203.56,160.942C203.304,160.942 203.024,160.983 202.72,161.065C202.416,161.147 202.106,161.234 201.79,161.326C201.658,161.174 201.555,160.977 201.481,160.735C201.407,160.493 201.36,160.256 201.34,160.024C201.608,159.912 201.906,159.817 202.234,159.739C202.562,159.661 202.889,159.601 203.215,159.559C203.541,159.517 203.832,159.496 204.088,159.496C204.44,159.496 204.778,159.561 205.102,159.691C205.426,159.821 205.693,160.035 205.903,160.333C206.113,160.631 206.218,161.034 206.218,161.542L206.218,163.984C206.218,164.156 206.245,164.308 206.299,164.44C206.353,164.572 206.438,164.68 206.554,164.764Z" style="fill:white;fill-rule:nonzero;"/>
            <path d="M207.784,158.962C207.784,158.546 207.861,158.254 208.015,158.086C208.169,157.918 208.43,157.834 208.798,157.834L209.53,157.834L209.614,157.918L209.614,163.696C209.614,163.876 209.655,164.015 209.737,164.113C209.819,164.211 209.956,164.26 210.148,164.26L210.82,164.26C210.92,164.552 210.97,164.848 210.97,165.148C210.97,165.216 210.967,165.288 210.961,165.364C210.955,165.44 210.942,165.508 210.922,165.568C210.702,165.596 210.448,165.623 210.16,165.649C209.872,165.675 209.608,165.688 209.368,165.688C208.824,165.688 208.424,165.553 208.168,165.283C207.912,165.013 207.784,164.592 207.784,164.02L207.784,158.962ZM211.036,159.628C211.092,159.84 211.12,160.058 211.12,160.282C211.12,160.526 211.092,160.752 211.036,160.96L208.798,160.924L206.842,160.96C206.79,160.748 206.764,160.522 206.764,160.282C206.764,160.066 206.79,159.848 206.842,159.628L208.852,159.658L211.036,159.628Z" style="fill:white;fill-rule:nonzero;"/>
            <path d="M211.546,165.214C211.554,165.014 211.609,164.79 211.711,164.542C211.813,164.294 211.932,164.098 212.068,163.954C212.332,164.09 212.605,164.207 212.887,164.305C213.169,164.403 213.45,164.452 213.73,164.452C213.962,164.452 214.137,164.412 214.255,164.332C214.373,164.252 214.432,164.152 214.432,164.032C214.432,163.916 214.39,163.813 214.306,163.723C214.222,163.633 214.082,163.554 213.886,163.486L213.22,163.246C212.94,163.142 212.686,163.011 212.458,162.853C212.23,162.695 212.05,162.501 211.918,162.271C211.786,162.041 211.72,161.766 211.72,161.446C211.72,161.038 211.816,160.686 212.008,160.39C212.2,160.094 212.47,159.865 212.818,159.703C213.166,159.541 213.574,159.46 214.042,159.46C214.422,159.46 214.82,159.512 215.236,159.616C215.652,159.72 215.99,159.836 216.25,159.964C216.258,160.108 216.24,160.268 216.196,160.444C216.152,160.62 216.089,160.782 216.007,160.93C215.925,161.078 215.834,161.19 215.734,161.266C215.486,161.154 215.216,161.051 214.924,160.957C214.632,160.863 214.344,160.816 214.06,160.816C213.9,160.816 213.778,160.854 213.694,160.93C213.61,161.006 213.568,161.096 213.568,161.2C213.568,161.304 213.604,161.392 213.676,161.464C213.748,161.536 213.864,161.6 214.024,161.656L214.768,161.92C215.224,162.08 215.604,162.314 215.908,162.622C216.212,162.93 216.364,163.34 216.364,163.852C216.364,164.448 216.135,164.923 215.677,165.277C215.219,165.631 214.584,165.808 213.772,165.808C213.344,165.808 212.937,165.749 212.551,165.631C212.165,165.513 211.83,165.374 211.546,165.214Z" style="fill:white;fill-rule:nonzero;"/>
        </g>
        <g transform="matrix(0.750556,0,0,0.750556,75.4092,57.7439)">
            <path d="M313.334,227.589C313.334,227.589 299.565,225.897 296.334,221.589C295.584,220.589 293.054,227.991 300.334,232.589C305.084,235.589 302.871,238.214 302.871,238.214C302.871,238.214 303.155,235.189 291.868,234.302C280.46,233.406 283.334,219.839 283.334,219.839C283.334,219.839 271.795,239.281 299.584,244.839C304.584,245.839 304.617,250.754 304.617,250.754C304.617,250.754 287.684,248.749 284.584,242.589C283.981,241.392 281.843,250.591 305.1,259.619C310.044,261.538 309.334,245.839 309.334,245.839L309.334,232.839L308.834,229.839L313.334,227.589Z" style="fill:white;"/>
        </g>
        <g transform="matrix(1,0,0,1,0,0.863467)">
            <path d="M293.717,229.472C293.717,229.472 291.09,225.887 291.517,222.472C291.717,220.872 295.517,225.072 293.717,229.472Z" style="fill:white;"/>
        </g>
        <g transform="matrix(0.584883,0,0,0.584883,122.767,95.072)">
            <path d="M294.717,218.272C294.717,218.272 291.117,215.672 293.917,212.872C294.517,212.272 296.317,215.472 294.717,218.272Z" style="fill:white;"/>
        </g>
    </g>
</svg>
