<?xml version="1.0" encoding="UTF-8" standalone="no"?>
<!DOCTYPE svg PUBLIC "-//W3C//DTD SVG 1.1//EN" "http://www.w3.org/Graphics/SVG/1.1/DTD/svg11.dtd">
<svg width="100%" height="100%" viewBox="0 0 255 371" version="1.1" xmlns="http://www.w3.org/2000/svg" xmlns:xlink="http://www.w3.org/1999/xlink" xml:space="preserve" xmlns:serif="http://www.serif.com/" style="fill-rule:evenodd;clip-rule:evenodd;stroke-linejoin:round;stroke-miterlimit:2;">
    <g transform="matrix(1,0,0,1,-1052,-252.567)">
        <g transform="matrix(0.730619,0.0994359,-0.0949014,0.697301,888.136,200.528)">
            <path d="M294.187,338.686C294.187,338.686 278.118,362.246 277.029,397.678C277.029,397.678 280.192,402.75 284.799,401.232C289.409,399.715 294.187,338.686 294.187,338.686Z" style="fill:white;fill-rule:nonzero;"/>
            <path d="M295.478,338.932C289.764,347.365 285.511,356.44 282.674,366.137C281.37,370.586 280.38,375.119 279.574,379.69C279.009,382.883 278.622,386.113 278.31,389.342C278.16,390.867 276.911,397.172 277.73,398.424C279.246,400.742 281.799,400.647 284.592,400.545C284.96,400.453 285.332,400.356 285.702,400.266C284.795,401.414 284.556,401.625 284.977,400.897C285.121,400.615 285.233,400.316 285.349,400.02C285.651,399.252 285.873,398.451 286.092,397.656C289.14,386.572 289.962,374.678 291.165,363.287C291.998,355.406 293.625,348.143 294.245,340.242C294.302,339.508 295.421,339.02 295.466,338.49C294.778,347.211 293.495,355.191 292.559,363.889C291.361,375.033 290.773,387.254 287.114,397.934C286.252,400.459 284.645,401.559 281.883,401.66C279.043,401.77 275.978,401.057 276.073,398.373C276.285,392.676 277.173,385.725 278.165,380.113C280.608,366.297 285.779,352.984 293.21,341.016C293.398,340.709 293.764,340.35 293.966,340.053C294.244,339.641 295.586,338.77 295.478,338.932Z" style="fill:rgb(79,0,206);fill-rule:nonzero;"/>
            <path d="M291.338,289.723C291.676,286.594 296.551,272.955 297.784,269.551C297.02,264.887 296.536,255.457 296.536,255.457L340.292,253.345C340.292,253.345 341.812,271.365 341.433,279.234C341.051,287.102 339.365,288.02 339.365,288.02L335.4,291.078C335.4,291.078 317.564,295.268 311.313,295.303L311.741,296.156C311.741,296.156 305.003,299.406 297.697,298.768C290.389,298.127 290.95,293.307 291.338,289.723Z" style="fill:white;fill-rule:nonzero;"/>
            <path d="M290.722,290.379C291.564,284.488 294.185,278.598 296.162,273.02C297.975,267.902 296.2,261.563 295.914,256.153C295.9,255.878 296.883,254.774 297.159,254.76C306.077,254.331 315.002,253.9 323.923,253.468C328.831,253.231 333.748,252.996 338.659,252.757C339.408,252.721 340.161,252.685 340.912,252.649C340.957,252.646 341.327,258.128 341.351,258.443C341.884,266.018 342.545,273.746 341.837,281.328C341.611,283.764 341.306,287.674 339.003,289.166C337.604,290.068 336.255,290.93 334.817,291.762C333.626,292.455 331.499,292.516 330.175,292.805C323.823,294.193 317.218,295.848 310.691,295.998C311.105,295.533 311.521,295.072 311.935,294.606C312.078,294.893 312.221,295.176 312.359,295.459C312.468,295.672 311.364,296.746 311.158,296.842C306.794,298.887 301.86,299.723 297.073,299.461C291.421,299.156 290.202,295.277 290.714,290.416C290.775,289.861 291.916,289.436 291.958,289.027C291.485,293.49 292.177,296.772 297.036,297.902C301.88,299.031 307.911,297.537 312.322,295.473C311.919,295.93 311.521,296.391 311.119,296.852C310.976,296.566 310.834,296.283 310.691,295.998C310.602,295.82 311.717,294.613 311.935,294.606C317.659,294.471 323.421,293.094 329.003,291.928C331.114,291.49 333.223,291.024 335.328,290.541C336.89,290.184 336.546,289.85 337.849,289.01C338.054,288.875 339.269,288.131 339.756,287.08C340.428,285.639 340.398,284.254 340.597,282.721C341.055,279.117 340.885,275.414 340.767,271.797C340.575,266.014 340.172,260.233 339.707,254.465C339.626,253.471 321.209,254.931 319.43,255.017C311.594,255.394 303.755,255.773 295.914,256.153C296.328,255.688 296.744,255.225 297.159,254.76C297.286,257.204 297.458,259.646 297.654,262.086C297.908,265.26 298.709,268.01 297.64,271.014C295.571,276.807 292.829,282.945 291.951,289.066C291.882,289.555 290.756,290.149 290.722,290.379Z" style="fill:rgb(79,0,206);fill-rule:nonzero;"/>
            <path d="M345.97,302.461C345.97,302.461 341.04,291.941 340.381,290.951C339.722,289.963 314.938,286.576 299.596,295.369C299.596,295.369 295.786,297.879 296.296,303.84C296.803,309.801 296.771,337.865 293.017,347.563C293.017,347.563 307.408,315.654 345.97,302.461Z" style="fill:white;fill-rule:nonzero;"/>
            <path d="M345.351,303.156C344.39,301.107 343.421,299.063 342.442,297.022C341.833,295.746 340.804,292.006 339.374,291.443C334.107,289.369 326.741,290.033 321.261,290.324C316.482,290.578 311.738,291.352 307.139,292.66C301.867,294.158 297.315,295.734 296.871,301.826C296.401,308.293 297.194,315.031 296.961,321.545C296.689,329.145 296.28,336.953 294.433,344.361C294.205,345.275 291.544,349.897 292.832,347.332C293.463,346.086 294.154,344.867 294.867,343.66C300.696,333.803 308.618,325.086 317.459,317.852C326.101,310.783 336.034,305.457 346.555,301.775C346.309,301.863 345.871,302.979 345.39,303.149C324.272,310.533 303.132,326.016 293.632,346.91C293.418,347.377 292.502,347.947 292.401,348.223C296.226,337.785 295.832,325.211 295.901,314.238C295.941,307.559 293.992,299.451 300.036,294.785C304.239,291.543 310.885,290.42 316,289.606C322.116,288.633 328.413,288.578 334.576,289.092C336.68,289.27 340.38,289.022 341.485,291.145C343.304,294.621 344.928,298.213 346.595,301.766C346.741,302.084 345.3,303.051 345.351,303.156Z" style="fill:rgb(3,4,4);fill-rule:nonzero;"/>
            <path d="M595.776,215.637C595.776,215.637 588.334,160.866 587.915,154.217C587.498,147.566 588.104,134.521 586.188,129.485C584.268,124.449 578.399,119.705 573.001,113.11C567.606,106.516 555.168,86.019 544.351,73.656C533.531,61.296 525.913,52.767 493.17,38.489C460.427,24.209 454.517,27.553 445.444,25.823C436.371,24.092 400.513,16.77 386.297,20.48C372.081,24.191 334.343,44.185 320.368,73.827C306.392,103.469 297.027,124.748 295.463,128.433C293.898,132.118 287.579,135.242 285.745,154.473C283.909,173.704 278.69,195.112 281.536,203.702C281.536,203.702 285.077,216.669 356.639,209.535L358.181,199.835C358.181,199.835 363.317,181.12 365.212,173.505C367.105,165.891 370.474,144.01 374.029,136.24C377.588,128.468 383.745,117.044 386.968,113.41C390.188,109.776 407.338,91.638 408.018,89.793C408.696,87.947 414.468,82.318 416.391,80.511C418.311,78.704 419.517,79.983 420.552,80.016C421.59,80.047 431.542,80.146 433.87,78.558C436.201,76.97 437.004,77.824 440.098,78.335C443.192,78.844 441.743,78.8 446,82.042C450.254,85.283 451.894,85.956 453.506,87.457C455.119,88.959 465.001,104.815 471.08,116.201C477.159,127.586 484.107,144.391 485.866,147.97C487.622,151.55 490.313,158.477 492.409,164.556C494.501,170.633 496.345,178.156 497.324,180.052C498.302,181.949 498.946,187.984 500.012,193.823C501.075,199.663 503.675,216.333 505.55,222.82C507.423,229.306 519.177,231.534 526.176,233.2C533.177,234.867 574.2,236.128 595.776,215.637Z" style="fill:white;fill-rule:nonzero;"/>
            <path d="M594.947,216.564C592.181,196.197 588.491,175.657 587.087,155.144C586.525,146.927 588.286,137.216 584.952,129.472C582.98,124.885 578.532,121.174 575.229,117.567C572.379,114.451 569.909,111.109 567.505,107.646C557.516,93.259 548.035,78.551 535.691,66.011C523.28,53.399 506.869,45.711 490.849,38.769C477.82,33.124 464.579,28.317 450.339,27.389C438.273,26.603 426.315,23.201 414.305,21.697C406.218,20.684 397.913,19.882 389.774,20.665C383.739,21.244 377.971,23.874 372.56,26.456C354.362,35.135 336.686,48.158 325.546,65.136C319.105,74.953 314.83,86.479 309.939,97.123C306.387,104.861 302.876,112.616 299.421,120.399C298.058,123.466 296.973,126.899 295.011,129.651C290.933,135.364 288.558,140.919 287.307,147.905C286.279,153.633 285.966,159.513 285.149,165.278C284.232,171.772 283.197,178.25 282.379,184.756C281.703,190.133 280.199,197.655 282.404,202.878C284.018,206.697 291.125,207.955 294.478,208.68C314.788,213.076 331.514,214.367 351.919,212.362C351.37,212.963 356.37,209.808 355.819,210.41C357.614,199.117 359.937,188.515 362.808,177.442C366.754,162.218 368.651,146.129 375.722,131.884C378.919,125.442 381.952,118.667 385.953,112.619C390.487,105.767 395.533,103.161 399.87,98.392C403.365,94.549 406.151,90.251 409.571,86.418C411.644,84.098 414.236,82.364 416.484,80.211C418.644,78.14 420.406,79.103 423.067,79.1C426.571,79.097 430.291,79.075 433.677,78.092C434.926,77.728 435.817,76.873 437.153,76.715C438.772,76.526 441.21,77.318 442.762,77.82C443.84,78.168 444.882,79.539 445.713,80.235C447.552,81.787 449.573,83.14 451.571,84.475C453.841,85.989 455.174,87.487 456.689,89.729C467.7,106.026 476.322,123.58 484.221,141.541C487.785,149.646 491.323,157.676 494.059,166.119C495.405,170.278 496.36,174.595 497.944,178.672C499.692,183.17 500.004,188.163 500.841,192.895C502.267,200.981 503.525,209.098 505.225,217.133C505.942,220.529 506.51,223.509 509.231,225.878C512.486,228.708 517.28,229.866 521.344,230.925C531.304,233.518 541.276,233.462 551.489,232.415C567.432,230.778 584.304,226.062 596.302,214.928C597.016,214.268 595.483,216.128 595.25,216.345C582.951,227.755 566.156,232.467 549.831,234.27C537.141,235.671 524.641,235.233 512.63,230.552C509.301,229.257 505.976,227.253 504.721,223.748C503.367,219.966 502.877,215.695 502.146,211.763C500.509,202.926 499.139,194.044 497.6,185.193C497.011,181.811 495.596,178.656 494.623,175.369C492.971,169.791 491.218,164.286 489.177,158.837C486.333,151.247 482.809,143.892 479.512,136.49C475.264,126.958 470.698,117.638 465.486,108.595C461.635,101.911 457.86,94.465 452.841,88.554C450.622,85.939 447.24,83.548 444.565,81.444C441.684,79.177 440.393,78.354 436.515,78.017C435.096,77.895 432.798,79.813 431.434,80.119C429.758,80.495 428.067,80.668 426.36,80.793C423.287,81.02 421.172,81.039 418.184,80.634C416.432,80.397 408.33,89.95 401.043,98.427C396.364,103.872 391.869,109.072 390.009,111.083C381.815,119.955 370.972,145.35 368.704,156.607C366.536,167.364 364.669,178.056 361.808,188.651C359.99,195.385 359.626,201.807 358.529,208.694C358.468,209.089 354.875,210.327 354.47,210.366C336.123,212.169 318.662,213.757 300.267,211.714C294.398,211.062 287.107,210.208 282.252,206.444C281.667,205.992 281.055,205.423 280.747,204.733C278.454,199.603 280.09,191.916 280.726,186.612C282.083,175.197 283.667,163.75 285.259,152.368C286.231,145.422 287.997,138.773 292.11,133.014C294.319,129.924 295.689,126.867 297.229,123.39C300.505,115.974 303.854,108.587 307.226,101.213C315.247,83.679 322.247,65.928 335.906,51.931C347.457,40.092 361.372,30.455 376.397,23.556C381.465,21.23 386.652,19.269 392.232,18.732C400.439,17.942 408.89,18.956 417.029,19.975C428.837,21.456 440.551,24.789 452.417,25.562C467.053,26.515 480.64,31.772 493.998,37.561C509.827,44.418 523.802,52.956 536.033,65.383C548.416,77.964 558.9,92.056 568.92,106.487C572.767,112.029 576.83,116.904 581.302,121.938C586.27,127.53 588.201,133.084 588.442,140.317C588.729,148.917 589.086,157.161 590.148,165.69C592.183,182.045 594.385,198.378 596.604,214.711C596.691,215.349 594.896,216.179 594.947,216.564Z" style="fill:rgb(98,0,235);fill-rule:nonzero;"/>
            <path d="M390.939,490.352C390.939,490.352 363.031,507.746 334.515,490.9C305.999,474.057 285.315,445.215 280.098,399.018C274.884,352.815 310.674,309.69 336.118,303.68C365.261,296.799 417.922,307.438 436.375,361.508C436.375,361.508 454.199,442.938 390.939,490.352Z" style="fill:white;fill-rule:nonzero;"/>
            <path d="M390.163,491.268C379.186,498.035 364.906,500.348 352.308,498.553C334.078,495.953 317.548,482.145 306.051,468.434C293.762,453.779 286.252,435.793 282.109,417.258C277.303,395.766 277.911,374.887 286.472,354.432C292.87,339.137 303.159,325.17 315.781,314.43C326.354,305.43 338.05,301.332 351.8,300.916C383.275,299.961 413.457,316.201 429.432,343.375C434.07,351.266 437.274,359.145 438.397,368.117C439.721,378.725 439.834,389.49 438.971,400.139C436.397,431.793 423.266,461.291 399.978,483.094C396.898,485.975 393.626,488.645 390.268,491.193C390.099,491.318 391.219,489.813 391.613,489.514C421.568,466.816 436.243,431.764 437.746,394.893C438.13,385.465 437.679,375.951 436.28,366.613C434.671,355.869 428.703,345.652 422.378,337.016C404.539,312.666 373.218,300.086 343.452,303.221C325.417,305.117 311.322,316.69 300.665,330.822C287.364,348.459 279.652,370.621 280.504,392.772C281.713,424.158 294.845,456.422 318.326,477.582C330.396,488.461 344.847,496.928 361.445,497.316C371.637,497.555 382.961,494.836 391.718,489.438C391.339,489.672 390.779,490.887 390.163,491.268Z" style="fill:rgb(98,0,235);fill-rule:nonzero;"/>
            <path d="M318.195,312.807C298.826,330.232 285.937,357.449 284.988,388.381C283.323,442.621 318.981,487.729 364.639,489.131C379.002,489.57 392.642,485.633 404.645,478.34C400.563,482.524 396.015,486.549 390.939,490.352C390.939,490.352 363.031,507.746 334.515,490.9C305.999,474.057 285.315,445.215 280.098,399.018C276.04,363.076 296.797,329.002 318.195,312.807Z" style="fill:white;fill-rule:nonzero;"/>
            <path d="M317.669,313.518C284.224,344.012 277.494,397.08 295.58,437.369C311.239,472.256 347.749,495.904 386.304,485.719C393.05,483.938 399.442,480.984 405.422,477.428C405.265,477.52 404.589,478.58 404.3,478.873C399.485,483.74 394.291,489.174 388.162,492.375C382.497,495.334 376.296,497.248 370.018,498.361C349.602,501.984 331.574,492.609 316.668,479.44C303.149,467.488 293.438,451.951 287.236,435.098C279.724,414.691 276.296,391.865 281.176,370.492C286.358,347.785 300.39,326.164 318.869,311.969C319.034,311.842 317.915,313.346 317.521,313.645C298.218,328.477 285.435,351.67 281.477,375.551C277.901,397.129 283.317,420.971 291.922,440.815C298.94,457 309.871,471.197 323.735,482.092C331.607,488.275 340.302,493.502 350.078,495.938C359.705,498.336 369.94,497.477 379.376,494.697C383.615,493.445 387.905,491.754 391.695,489.453C394.603,487.686 397.297,485.024 399.821,482.774C401.241,481.51 402.608,480.184 403.96,478.85C402.836,479.961 401.585,480.592 400.22,481.34C394.925,484.244 389.235,486.367 383.404,487.902C365.115,492.734 345.615,489.387 329.403,479.953C295.571,460.279 281.125,418.371 284.712,380.971C287.223,354.756 299.241,329.863 318.721,312.098C319.438,311.443 317.905,313.301 317.669,313.518Z" style="fill:rgb(98,0,235);fill-rule:nonzero;"/>
            <path d="M284.988,388.381C285.937,357.449 298.826,330.232 318.195,312.807C324.304,308.184 330.468,305.014 336.118,303.68C365.261,296.799 417.922,307.438 436.375,361.508C436.375,361.508 451.446,430.393 404.645,478.34C392.642,485.633 379.002,489.57 364.639,489.131C318.981,487.729 283.323,442.621 284.988,388.381Z" style="fill:white;fill-rule:nonzero;"/>
            <path d="M284.16,389.309C284.937,368.115 291.16,347.461 303.147,329.889C312.63,315.992 325.115,304.389 342.28,301.731C371.483,297.207 402.597,309.258 421.434,331.836C428.989,340.893 436.042,352.611 437.889,364.436C439.604,375.44 439.874,386.69 439.146,397.787C438.01,415.061 433.832,432.129 426.329,447.752C422.318,456.106 417.194,463.885 411.331,471.051C409.078,473.803 406.718,476.617 404.119,479.051C400.63,482.315 394.459,484.246 390.051,485.873C363.16,495.813 333.854,487.387 313.733,467.856C292.892,447.623 283.432,417.885 284.16,389.309C284.178,388.594 285.804,387.953 285.815,387.451C284.869,424.672 301.896,463.932 336.503,481.024C354.962,490.139 376.546,490.348 395.488,482.525C398.069,481.457 400.554,480.182 403,478.84C406.712,476.805 409.378,473.098 411.977,469.85C415.987,464.828 419.45,459.375 422.52,453.736C427.067,445.387 430.443,436.428 432.946,427.268C437.055,412.219 438.397,396.436 437.668,380.881C437.347,374.049 437.068,366.6 434.718,360.096C423.196,328.217 394.775,306.719 361.267,303.197C354.876,302.522 348.401,302.596 342.026,303.391C329.948,304.897 319.726,310.641 311.532,319.639C294.879,337.92 286.709,363.063 285.815,387.451C285.789,388.174 284.177,388.805 284.16,389.309Z" style="fill:rgb(135,0,235);fill-rule:nonzero;"/>
            <path d="M343.792,391.936C343.837,412.436 356.313,429.029 371.659,428.996C387.003,428.963 399.405,412.316 399.36,391.815C399.317,371.313 386.842,354.719 371.494,354.752C356.151,354.787 343.748,371.436 343.792,391.936Z" style="fill:white;fill-rule:nonzero;"/>
            <path d="M344.622,391.006C344.842,405.666 351.495,422.701 366.771,427.295C374.347,429.574 382.281,426.781 387.985,421.656C395.711,414.713 398.428,402.65 398.534,392.742C398.688,378.143 391.398,360.969 376.383,356.453C368.807,354.174 360.87,356.967 355.166,362.094C347.442,369.035 344.726,381.096 344.622,391.006C344.612,391.717 342.971,392.373 342.967,392.863C343.122,378.031 350.078,361.143 364.738,355.234C383.195,347.803 396.883,367.559 399.585,383.25C402.279,398.906 396.7,416.354 383.561,425.797C377.062,430.465 368.737,431.039 361.514,427.811C353.313,424.141 348.067,415.787 345.271,407.592C343.657,402.859 343.039,397.838 342.967,392.863C342.954,392.162 344.629,391.479 344.622,391.006Z" style="fill:rgb(135,0,235);fill-rule:nonzero;"/>
            <path d="M416.894,523.088C416.894,523.088 390.662,526.428 384.927,483.531C379.194,440.631 384.229,384.795 480.337,334.654C480.337,334.654 522.502,312.309 557.97,359.44C557.97,359.44 594.351,498.262 416.894,523.088Z" style="fill:white;fill-rule:nonzero;"/>
            <path d="M416.066,524.016C410.438,524.698 404.44,522.107 400.059,518.818C387.894,509.69 384.895,492.684 383.394,478.559C380.718,453.33 384.45,428.334 397.123,406.107C415.479,373.924 447.633,351.482 479.672,334.496C500.772,323.311 526.476,328.492 544.433,343.199C548.678,346.678 552.448,350.699 555.959,354.902C556.848,355.967 558.517,357.367 558.861,358.758C559.078,359.647 559.269,360.547 559.447,361.445C560.312,365.736 560.885,370.088 561.285,374.445C562.703,389.859 561.627,405.537 557.916,420.568C552.966,440.625 542.775,458.811 528.672,473.856C508.738,495.127 481.931,508.197 454.215,516.131C441.72,519.706 428.927,522.191 416.066,524.016C416.561,523.943 417.014,522.263 417.724,522.16C452.042,517.289 486.905,507.326 514.793,485.963C533.862,471.352 547.586,451.303 554.603,428.377C559.421,412.637 560.974,395.947 559.887,379.553C559.56,374.652 558.979,369.766 558.104,364.938C557.147,359.668 555.483,357.988 551.44,353.432C533.859,333.613 504.872,323.33 479.91,335.395C461.175,344.451 443.183,356.508 427.509,370.17C413.369,382.486 401.396,397.256 393.637,414.4C384.096,435.482 382.726,458.617 385.586,481.305C387.282,494.736 391.353,509.924 403.169,518.005C407.19,520.75 412.762,522.763 417.724,522.16C417.239,522.217 416.772,523.928 416.066,524.016Z" style="fill:rgb(135,0,235);fill-rule:nonzero;"/>
            <path d="M439.808,527.215C443.895,522.949 451.013,524.83 453.359,525.609C452.858,527.137 452.119,529.049 451.078,530.981C448.585,535.611 444.56,540.391 444.74,541.57C444.74,541.57 437.882,541.981 435.354,536.512C435.354,536.512 437.464,533.633 439.808,527.215Z" style="fill:white;fill-rule:nonzero;"/>
            <path d="M440.335,526.51C444.212,522.914 449.406,523.149 454.189,524.682C454.187,524.701 454.185,524.717 454.182,524.734C453.148,527.74 451.76,530.49 450.081,533.178C448.805,535.213 445.762,538.176 445.568,540.643C445.536,541.037 444.313,542.481 443.91,542.5C440.038,542.674 436.363,540.897 434.526,537.441C434.49,537.373 434.692,537.141 434.71,537.113C436.608,534.457 437.84,531.137 438.988,528.092C439.237,527.426 440.483,526.731 440.628,526.342C439.682,528.859 438.641,531.322 437.362,533.69C437.102,534.178 436.815,534.652 436.526,535.123C435.969,536.029 436.104,535.438 436.618,536.4C438.231,539.441 442.311,540.789 445.568,540.643C445.017,541.262 444.463,541.881 443.91,542.5C444.008,541.279 444.975,540.113 445.616,539.129C447.661,535.994 449.797,532.99 451.365,529.57C451.764,528.705 452.997,526.664 451.583,526.244C450.44,525.91 449.267,525.711 448.087,525.553C444.942,525.139 441.659,525.725 439.28,527.926C438.569,528.584 440.101,526.727 440.335,526.51Z" style="fill:rgb(135,0,235);fill-rule:nonzero;"/>
            <path d="M439.808,527.215C440.985,523.988 442.224,519.875 443.28,514.772C443.28,514.772 449.942,513.94 454.247,522.365C454.247,522.365 453.991,523.691 453.359,525.609C451.013,524.83 443.895,522.949 439.808,527.215Z" style="fill:white;fill-rule:nonzero;"/>
            <path d="M438.988,528.092C440.447,524.027 441.56,519.871 442.462,515.649C442.548,515.238 443.685,513.893 444.109,513.846C445.958,513.646 447.861,514.328 449.459,515.185C451.416,516.232 452.895,517.967 454.12,519.774C455.436,521.709 454.868,522.547 454.182,524.734C454.088,525.029 452.84,526.637 452.532,526.537C448.243,525.15 442.826,524.557 439.28,527.926C438.578,528.592 440.104,526.727 440.335,526.51C444.15,522.881 449.461,523.154 454.189,524.682C453.639,525.283 453.09,525.885 452.539,526.484C452.833,525.549 453.106,524.612 453.337,523.659C453.542,522.807 452.428,521.576 451.966,520.893C450.89,519.31 449.431,518.024 447.801,517.042C446.286,516.123 444.245,515.502 442.453,515.703C443.002,515.1 443.553,514.5 444.103,513.899C443.203,518.121 442.088,522.277 440.628,526.342C440.389,527.012 439.123,527.709 438.988,528.092Z" style="fill:rgb(79,0,206);fill-rule:nonzero;"/>
            <path d="M468.563,522.186C468.563,522.186 436.696,540.076 412.551,522.746C388.403,505.412 404.204,450.113 447.835,407.072C491.464,364.031 532.69,358.662 538.805,362.17C544.919,365.674 614.513,422.559 468.563,522.186Z" style="fill:white;fill-rule:nonzero;"/>
            <path d="M467.785,523.1C445.275,535.633 405.722,535.662 400.885,504.147C398.436,488.186 404.369,471.318 411.134,457.154C419.566,439.496 431.479,423.469 445.013,409.42C460.071,393.795 477.791,380.479 497.325,370.94C508.516,365.473 521.39,360.547 534.028,360.359C542.197,360.234 547.952,368.092 552.143,374.272C577.845,412.172 545.797,455.943 518.624,482.438C503.068,497.606 485.688,510.84 467.785,523.1C468.167,522.841 468.735,521.686 469.339,521.271C489.334,507.578 508.694,492.65 525.517,475.137C536.616,463.58 546.572,450.582 553.178,435.904C560.446,419.75 562.486,401.363 555.293,384.84C551.768,376.74 545.992,368.606 538.639,363.52C533.386,359.883 523.206,363.078 517.778,364.475C499.688,369.131 482.925,378.727 468.058,389.822C446.583,405.846 428.639,426.75 415.915,450.367C407.842,465.356 400.886,482.596 402.265,499.889C403.546,515.949 414.693,525.971 430.313,528.756C443.214,531.063 457.914,527.555 469.316,521.284C469.324,521.279 469.33,521.276 469.339,521.271C468.966,521.479 468.414,522.748 467.785,523.1Z" style="fill:rgb(79,0,206);fill-rule:nonzero;"/>
            <path d="M578.743,429.135C569.692,459.926 527.595,517.777 461.337,524.453C461.337,524.453 443.345,526.182 431.034,521.862C418.724,517.543 412.722,503.672 418.064,484.965C423.411,466.256 434.414,425.324 507.907,382.371C507.907,382.371 565.939,397.014 572.479,400.117C574.553,401.102 582.942,414.857 578.743,429.135Z" style="fill:white;fill-rule:nonzero;"/>
            <path d="M579.563,428.26C571.875,453.979 552.887,476.979 532.656,493.992C506.863,515.682 471.207,530.287 437.125,524.557C428.526,523.107 421.441,519.211 417.657,511.102C413.881,503.012 415.093,493.381 417.455,485.096C419.912,476.492 422.808,468.104 426.783,460.065C441.029,431.258 466.294,409.004 492.614,391.453C496.5,388.859 500.465,386.387 504.458,383.967C505.724,383.197 507.663,381.172 509.244,381.572C511.688,382.191 514.129,382.815 516.57,383.441C526.59,386.004 536.598,388.607 546.585,391.289C554.893,393.52 563.311,395.621 571.44,398.455C574.694,399.59 576.018,402.322 577.458,405.361C580.837,412.492 581.589,420.664 579.563,428.26C579.387,428.93 578.017,429.658 577.922,430.014C580.365,420.84 578.697,410.231 573.068,402.467C571.13,399.793 566.481,399.215 563.526,398.332C550.564,394.471 537.44,391.117 524.349,387.723C519.476,386.461 514.599,385.209 509.717,383.969C508.857,383.75 507.996,383.533 507.136,383.315C505.956,383.016 501.297,386.77 500.167,387.461C497.095,389.346 494.067,391.295 491.061,393.281C472.688,405.404 455.264,419.715 441.731,437.19C434.074,447.074 427.878,458.031 423.46,469.729C419.133,481.199 414.761,494.318 418.274,506.459C423.426,524.276 445.424,524.594 460.615,523.646C478.521,522.524 496.222,516.311 511.816,507.656C529.643,497.76 545.228,483.797 557.608,467.65C566.235,456.397 573.838,443.67 577.922,430.014C578.123,429.342 579.456,428.625 579.563,428.26Z" style="fill:rgb(87,0,245);fill-rule:nonzero;"/>
            <path d="M574.635,350.203C574.635,350.203 571.755,376.451 574.577,385.873C577.398,395.291 583.805,402.746 582.311,417.631C580.81,432.598 575.243,445.205 552.188,473.324C552.188,473.324 581.704,444.158 575.694,417.014C569.685,389.871 527.167,403.494 513.847,411.797C500.526,420.1 468.596,440.063 454.079,460.354C454.079,460.354 452.581,461.861 449.392,461.039C446.202,460.217 438.379,458.316 434.085,453C434.085,453 442.6,435.738 459.042,420.275C475.486,404.813 488.65,394.846 494.487,387.147C500.321,379.443 514.404,366.604 517.974,344.936C517.974,344.936 518.564,342.57 526.114,343.217C533.664,343.863 575.274,339.543 574.635,350.203Z" style="fill:white;fill-rule:nonzero;"/>
            <path d="M575.465,349.277C574.912,354.352 574.563,359.453 574.333,364.551C574.001,371.895 573.611,379.752 576.014,386.807C578.991,395.545 583.226,402.932 583.363,412.453C583.452,418.656 582.068,425.072 580.031,430.902C577.67,437.654 573.986,443.9 570.073,449.856C564.964,457.629 558.829,466.447 552.667,472.654C562.787,462.465 571.201,449.025 574.552,435.01C576.465,427.008 576.399,417.445 571.649,410.408C568.035,405.057 561.604,402.813 555.469,402.092C542.103,400.518 527.243,405.106 515.518,411.299C509.334,414.57 503.483,418.715 497.674,422.596C488.928,428.428 480.426,434.645 472.393,441.428C467.472,445.588 462.763,450.033 458.538,454.902C456.8,456.902 455.413,459.783 453.209,461.35C450.781,463.08 447.564,461.756 445.006,460.984C440.542,459.635 436.354,457.475 433.255,453.93C433.257,453.91 433.261,453.893 433.262,453.875C439.387,441.561 448.51,429.654 458.422,420.203C466.808,412.209 475.655,405.164 484.262,397.414C490.076,392.18 494.95,386.326 499.955,380.354C506.647,372.369 512.146,363.664 515.313,353.686C516.578,349.686 516.073,344.274 520.763,342.629C523.312,341.736 526.16,342.324 528.794,342.357C531.42,342.391 534.051,342.268 536.674,342.19C543.68,341.973 550.692,341.805 557.698,342.172C562.037,342.4 575.528,342.508 575.465,349.277C575.458,349.984 573.812,350.643 573.807,351.133C573.853,346.524 567.326,345.438 563.914,344.84C557.073,343.641 549.971,343.744 543.055,343.846C537.478,343.924 531.882,344.328 526.304,344.197C524.711,344.162 523.14,344.014 521.541,344.074C520.556,344.111 520.322,343.941 519.406,344.295C519,344.451 518.888,344.682 518.672,344.998C516.912,350.397 516.208,354.834 513.817,360.092C510.629,367.107 506.776,373.797 501.87,379.697C497.998,384.356 494.206,389.129 489.938,393.434C483.14,400.293 474.931,406.107 467.737,412.537C457.183,421.965 447.504,431.846 439.777,443.77C438.221,446.178 436.752,448.647 435.4,451.166C434.066,453.658 440.146,456.42 442.013,457.342C445.085,458.859 449.081,460.326 452.543,460.336C453.641,460.338 454.681,459.244 454.075,460.076C454.56,459.412 455.074,458.762 455.577,458.115C456.878,456.438 458.281,454.838 459.69,453.252C471.979,439.445 487.407,427.715 502.778,417.627C513.848,410.365 524.557,405.068 537.551,401.934C549.578,399.033 566.651,397.67 574.136,409.842C582.159,422.889 574.875,441.088 567.992,452.871C563.578,460.424 558.062,467.682 551.844,473.857C551.345,474.352 551.25,474.275 551.698,473.729C566.583,455.516 584.956,433.404 581.21,408.061C580.343,402.182 577.66,396.815 575.404,391.389C573.349,386.445 572.692,381.623 572.54,376.299C572.303,367.924 572.902,359.457 573.807,351.133C573.888,350.391 575.404,349.824 575.465,349.277Z" style="fill:rgb(87,0,245);fill-rule:nonzero;"/>
            <path d="M484.682,443.045C451.816,471.82 432.935,505.035 445.292,519.149C457.648,533.262 501.802,520.307 532.879,494.301C566.379,466.266 582.307,429.082 569.95,414.973C557.593,400.856 517.546,414.274 484.682,443.045Z" style="fill:white;fill-rule:nonzero;"/>
            <path d="M484.009,443.885C472.992,453.596 462.802,464.279 454.494,476.424C449.464,483.777 445.054,491.893 443.048,500.635C441.661,506.684 442.003,513.297 446.119,518.219C449.921,522.764 456.54,523.828 462.107,524.006C480.744,524.599 499.978,515.591 515.576,506.25C536.828,493.531 555.53,474.975 566.646,452.707C573.759,438.455 579.429,413.135 557.164,410.434C545.731,409.047 533.696,413.506 523.455,418.076C509.067,424.488 495.87,433.586 484.009,443.885C483.861,444.012 484.979,442.531 485.354,442.205C501.176,428.469 519.593,416.539 539.896,410.754C550.853,407.633 567.772,405.484 573.39,418.279C579.07,431.223 570.395,448.109 563.883,458.965C554.096,475.277 540.237,489.527 524.986,500.781C510.862,511.199 494.608,519.38 477.561,523.677C467.136,526.307 450.491,528.943 443.271,518.513C435.972,507.967 444.248,492.232 449.771,482.957C458.994,467.475 471.907,454.061 485.354,442.205C485.498,442.08 484.382,443.555 484.009,443.885Z" style="fill:rgb(87,0,245);fill-rule:nonzero;"/>
            <path d="M338.079,253.275C338.079,253.275 338.413,260.475 338.365,261.994L333.241,262.252L332.846,252.7L338.079,253.275Z" style="fill:white;fill-rule:nonzero;"/>
            <path d="M338.495,252.812C338.63,255.71 338.839,258.629 338.781,261.531C338.777,261.723 338.146,262.449 337.953,262.457C336.688,262.524 335.421,262.586 334.156,262.649C332.817,262.717 332.837,262.93 332.783,261.623C332.666,258.803 332.549,255.984 332.43,253.164C332.425,252.999 333.094,252.218 333.26,252.237C335.004,252.429 336.75,252.62 338.495,252.812C338.334,252.795 337.964,253.772 337.667,253.739C335.922,253.547 334.177,253.355 332.43,253.164C332.708,252.853 332.982,252.546 333.26,252.237C333.372,254.969 333.486,257.702 333.601,260.436C333.654,261.697 333.391,261.801 334.672,261.736C336.04,261.668 337.411,261.6 338.781,261.531C338.505,261.842 338.229,262.149 337.953,262.457C338.008,259.557 337.802,256.637 337.667,253.739C337.652,253.396 338.505,253.038 338.495,252.812Z" style="fill:rgb(87,0,245);fill-rule:nonzero;"/>
            <path d="M305.708,253.94L306.223,264.188L301.791,264.465L300.571,254.613L305.708,253.94Z" style="fill:white;fill-rule:nonzero;"/>
            <path d="M306.123,253.477C306.294,256.892 306.465,260.307 306.637,263.723C306.646,263.908 305.992,264.641 305.809,264.652C304.562,264.731 303.315,264.809 302.069,264.887C301,264.953 301.302,264.326 301.177,263.311C300.836,260.566 300.497,257.822 300.158,255.077C300.135,254.891 300.806,254.172 300.986,254.148C302.699,253.923 304.41,253.701 306.123,253.477C305.876,253.509 305.647,254.359 305.293,254.405C303.582,254.628 301.871,254.853 300.158,255.077C300.434,254.767 300.711,254.459 300.986,254.148C301.313,256.783 301.637,259.416 301.963,262.049C302.044,262.709 301.83,264.025 302.614,263.977C303.956,263.893 305.297,263.809 306.637,263.723C306.362,264.033 306.083,264.342 305.809,264.652C305.637,261.236 305.465,257.82 305.293,254.405C305.276,254.062 306.133,253.701 306.123,253.477Z" style="fill:rgb(87,0,245);fill-rule:nonzero;"/>
            <path d="M331.05,252.645L331.174,262.051L307.758,263.682L306.844,253.007L331.05,252.645Z" style="fill:white;fill-rule:nonzero;"/>
            <path d="M331.464,252.182C331.506,255.317 331.547,258.45 331.59,261.588C331.592,261.777 330.952,262.5 330.759,262.514C324.44,262.955 318.118,263.395 311.798,263.836C310.04,263.957 307.425,265.074 307.25,263.035C306.974,259.846 306.701,256.659 306.427,253.471C306.413,253.296 307.081,252.546 307.257,252.544C315.326,252.423 323.395,252.302 331.464,252.182C331.255,252.184 330.965,253.104 330.634,253.109C322.564,253.23 314.498,253.35 306.427,253.471C306.703,253.163 306.98,252.853 307.257,252.544C307.515,255.546 307.773,258.548 308.03,261.551C308.25,264.117 309.543,263.121 311.986,262.951C318.522,262.496 325.054,262.041 331.59,261.588C331.314,261.895 331.037,262.205 330.759,262.514C330.718,259.379 330.679,256.245 330.634,253.109C330.629,252.757 331.467,252.418 331.464,252.182Z" style="fill:rgb(87,0,245);fill-rule:nonzero;"/>
            <path d="M571.363,308.215L581.448,337.762C581.448,337.762 586.321,347.869 576.287,350.461C566.253,353.057 553.712,356.197 540.68,355.176C527.646,354.15 521.291,338.193 520.747,335.691C520.202,333.186 515.916,324.135 524.737,293.506L528.213,288.428L575.146,286.344L571.363,308.215Z" style="fill:white;fill-rule:nonzero;"/>
            <path d="M572.192,307.281C575.413,316.725 578.635,326.166 581.856,335.607C582.911,338.699 584.019,341.617 582.989,344.924C581.199,350.678 574.067,351.783 569.154,352.975C558.866,355.469 545.358,358.729 535.05,354.988C528.417,352.58 523.813,345.897 521.043,339.723C517.607,332.072 518.119,323.258 519.248,315.172C520.081,309.191 521.487,303.297 523.052,297.475C523.94,294.154 525.517,291.791 527.569,289.031C529.582,286.322 533.771,287.291 536.846,287.154C549.889,286.576 562.931,285.996 575.974,285.416C575.972,285.436 575.969,285.453 575.968,285.469C574.705,292.76 573.444,300.047 572.185,307.336C572.069,307.992 570.599,308.768 570.541,309.086C571.615,302.885 572.688,296.686 573.76,290.488C573.939,289.447 575.011,287.24 573.649,287.301C571.27,287.406 568.893,287.514 566.514,287.619C553.47,288.197 540.428,288.777 527.384,289.356C527.913,288.793 528.441,288.229 528.97,287.664C527.535,289.76 525.811,291.74 525.114,294.195C523.521,299.807 522.202,305.498 521.224,311.252C520.179,317.418 519.568,323.865 520.489,330.088C521.844,339.232 527.426,348.623 535.83,352.758C540.336,354.975 545.925,354.549 550.779,354.33C557.088,354.039 563.342,352.836 569.484,351.432C573.868,350.43 581.089,350.207 581.77,344.729C582.017,342.742 581.447,340.541 580.638,338.734C576.663,329.842 574.221,319.94 571.076,310.723C570.895,310.193 570.716,309.664 570.535,309.139C570.362,308.631 572.271,307.514 572.192,307.281Z" style="fill:rgb(87,0,245);fill-rule:nonzero;"/>
            <path d="M521.411,226.28C518.148,224.52 521.794,213.848 521.794,213.848C525.198,202.063 521.512,187.017 521.044,184.239C520.576,181.459 519.609,167.878 517.124,149.83C514.637,131.78 506.438,119.638 503.829,114.581C501.218,109.523 500.147,108.384 484.453,79.145C468.762,49.905 452.48,39.865 452.48,39.865C438.509,29.207 425.53,23.435 414.086,20.645C427.27,22.212 440.438,24.867 445.444,25.823C454.517,27.553 460.427,24.209 493.17,38.489C525.913,52.767 533.531,61.296 544.351,73.656C555.168,86.019 567.606,106.516 573.001,113.11C578.399,119.705 584.268,124.449 586.188,129.485C588.104,134.521 587.498,147.566 587.915,154.217C588.334,160.866 595.776,215.637 595.776,215.637C594.153,217.178 592.419,218.594 590.599,219.897C566.981,222.679 523.776,227.553 521.411,226.28Z" style="fill:white;fill-rule:nonzero;"/>
            <path d="M520.583,227.207C516.653,224.311 521.107,214.798 521.813,210.978C523.401,202.378 521.737,193.632 520.216,185.167C518.911,177.904 518.698,170.333 517.851,163.007C516.521,151.515 514.9,140.447 510.347,129.734C507.019,121.902 502.5,114.507 498.344,107.082C489.078,90.527 481.077,73.037 469.3,58.061C455.454,40.452 434.943,27.015 413.257,21.572C413.471,21.626 414.393,19.654 414.913,19.716C429.047,21.443 442.896,24.471 457.045,25.931C474.596,27.743 491.837,36.1 507.431,43.778C520.984,50.451 530.598,59.351 540.641,70.639C546.985,77.771 554.693,84.717 560.121,92.558C564.948,99.532 568.227,107.168 573.675,113.684C577.17,117.864 582.457,121.23 585.548,125.742C587.997,129.315 588.136,133.803 588.355,137.981C588.688,144.358 588.411,150.738 589.118,157.093C590.552,170.026 592.349,182.922 594.065,195.821C594.772,201.138 595.488,206.456 596.207,211.771C596.619,214.833 596.641,215.19 594.116,217.385C593.176,218.203 591.02,220.678 589.771,220.826C587.872,221.048 585.976,221.271 584.077,221.492C579.442,222.032 574.806,222.56 570.171,223.081C560.962,224.116 551.746,225.109 542.521,225.998C537.635,226.467 532.744,226.908 527.847,227.218C525.795,227.349 522.568,228.032 520.583,227.207C520.677,227.247 521.852,225.19 522.239,225.352C524.581,226.326 528.493,225.433 530.909,225.272C537.441,224.835 543.961,224.177 550.476,223.52C557.972,222.762 565.46,221.941 572.947,221.1C576.536,220.697 580.124,220.286 583.713,219.871C585.359,219.68 587.006,219.489 588.655,219.295C591.962,218.91 593.908,217.136 596.302,214.928C595.851,215.474 595.399,216.02 594.947,216.564C592.181,196.197 589.144,175.969 587.738,155.455C587.178,147.237 589.124,136.596 585.791,128.85C583.818,124.264 578.532,121.174 575.229,117.567C572.379,114.451 569.909,111.109 567.505,107.646C557.516,93.259 548.035,78.551 535.691,66.011C528.604,58.81 520.201,53.283 511.344,48.5C497.911,41.245 483.512,34.933 468.864,30.58C462.195,28.599 455.582,27.805 448.688,27.272C445.307,27.01 441.996,26.241 438.671,25.608C430.24,24.011 421.773,22.612 413.257,21.572C413.808,20.954 414.36,20.335 414.913,19.716C430.422,23.607 443.249,32.42 455.577,42.518C470.318,54.593 481.225,70.734 490.132,87.221C494.74,95.749 499.613,104.14 504.16,112.7C507.009,118.067 509.027,123.17 511.41,128.777C515.981,139.528 518.339,151.039 519.668,162.544C520.37,168.61 520.932,174.689 521.563,180.761C521.989,184.886 522.991,188.927 523.513,193.044C524.325,199.463 524.684,206.808 522.591,213.044C521.563,216.104 519.049,223.001 522.239,225.352C522.314,225.408 520.78,227.351 520.583,227.207Z" style="fill:rgb(87,0,245);fill-rule:nonzero;"/>
            <path d="M595.262,212.096C595.262,212.096 602.696,213.154 600.544,222.419C598.395,231.686 593.935,248.554 593.935,248.554C593.935,248.554 593.278,256.416 591.771,258.235C591.771,258.235 591.44,269.01 588.957,275.568C586.474,282.131 587.985,286.947 573.437,287.949C558.891,288.955 532.197,293.734 523.326,292.217C514.455,290.703 514.646,284.486 513.729,280.516C513.307,278.682 512.201,273.059 510.623,266.943C508.787,259.822 506.505,251.974 506.856,247.746C506.856,247.746 498.237,217.825 503.913,215.304C503.913,215.304 506.578,223.058 516.432,219.628C526.284,216.199 543.265,208.607 565.341,207.236C583.209,206.126 595.262,212.096 595.262,212.096Z" style="fill:white;fill-rule:nonzero;"/>
            <path d="M596.091,211.169C602.214,212.163 602.053,218.657 600.938,223.365C599.1,231.12 597.081,238.832 595.056,246.539C594.638,248.134 594.544,249.769 594.307,251.403C593.922,254.077 592.662,256.471 592.509,259.093C592.075,266.406 590.423,273.34 588.019,280.236C586.579,284.379 582.962,286.953 578.856,288.016C574.996,289.016 570.853,288.984 566.898,289.385C562.061,289.879 557.235,290.508 552.408,291.106C543.804,292.178 535.098,293.471 526.41,293.438C522.945,293.424 519.498,292.857 516.687,290.699C514.055,288.68 513.604,285.074 513.033,282.055C511.165,272.203 507.814,262.643 506.25,252.746C505.939,250.78 506.102,248.969 505.583,247.064C504.955,244.754 504.38,242.43 503.835,240.099C502.426,234.064 501.063,227.78 501.16,221.552C501.203,218.794 502.105,215.815 504.69,214.389C504.707,214.384 504.724,214.38 504.741,214.376C507.079,220.775 514.247,219.802 519.373,217.938C527.426,215.012 535.417,211.957 543.747,209.888C560.312,205.772 580.124,203.39 596.091,211.169C596.04,211.144 594.774,213.19 594.435,213.023C578.104,205.068 557.779,207.69 540.896,212.051C532.516,214.216 524.485,217.382 516.354,220.296C513.054,221.479 509.645,221.997 506.456,220.244C505.005,219.447 502.686,217.27 503.556,215.687C501.006,220.331 503.529,228.793 504.479,233.582C505.361,238.023 506.437,242.437 507.678,246.791C508.111,248.309 507.841,250.473 508.097,252.092C508.532,254.84 509.258,257.551 509.946,260.246C511.411,266.002 512.875,271.742 514.117,277.555C514.695,280.262 515.034,283.094 516.05,285.678C517.538,289.479 521.534,291.006 525.302,291.443C530.956,292.098 536.925,291.209 542.543,290.615C550.176,289.807 557.779,288.748 565.405,287.873C568.836,287.481 572.271,287.184 575.714,286.904C578.275,286.697 583.761,286.371 585.462,283.918C586.678,282.164 587.05,279.779 587.672,277.775C588.851,273.998 589.815,270.393 590.339,266.447C590.655,264.061 590.846,261.647 590.94,259.242C590.963,258.65 591.546,257.989 591.754,257.405C592.239,256.049 592.438,254.568 592.665,253.152C593.243,249.56 593.944,246.269 594.867,242.717C596.703,235.642 599.255,228.294 600.078,221.018C600.497,217.327 598.212,213.637 594.435,213.023C594.716,213.069 595.527,211.076 596.091,211.169Z" style="fill:rgb(87,0,245);fill-rule:nonzero;"/>
            <path d="M571.086,310.482C571.086,310.482 557.286,318.631 527.587,313.295C527.587,313.295 557.96,316.404 570.771,308.92L571.086,310.482Z" style="fill:rgb(87,0,245);fill-rule:nonzero;"/>
            <path d="M578.604,340.303C578.604,340.303 564.916,348.143 541.537,344.106C541.537,344.106 535.234,328.738 530.159,316.209C530.159,316.209 532.978,329.084 541.272,344.822C541.272,344.822 566.406,350.297 578.604,340.303Z" style="fill:rgb(61,0,235);fill-rule:nonzero;"/>
            <path d="M581.951,267.336C581.951,267.336 568.766,260.017 558.313,271.725C547.859,283.432 532.8,292.096 526.857,292.051L534.548,291.457C534.548,291.457 542.707,288.922 559.792,271.406C570.07,260.869 581.951,267.336 581.951,267.336Z" style="fill:rgb(61,0,235);fill-rule:nonzero;"/>
            <path d="M357.996,199.691C357.996,199.691 338.194,193.397 303.79,199.961C278.202,204.843 280.537,200.768 280.051,198.54C280.051,198.54 275.611,199.095 276.86,203.42C278.113,207.744 279.31,222.712 281.31,229.687C283.308,236.661 286.389,244.361 286.753,246.031C287.115,247.702 287.069,258.206 297.328,257.277C307.59,256.349 323.173,255.902 338.75,254.541C349.29,253.62 347.835,246.94 349.514,241.738C351.195,236.534 356.062,231.154 358.354,215.048C358.354,215.048 365.252,201.988 357.996,199.691Z" style="fill:white;fill-rule:nonzero;"/>
            <path d="M357.428,200.627C346.793,197.296 334.598,197.549 323.648,198.236C312.177,198.953 301.061,201.835 289.657,202.972C287.337,203.205 281.119,204.274 279.799,201.325C279.541,200.753 279.598,200.081 279.484,199.476C279.471,199.408 278.521,199.737 278.432,199.767C277.531,200.08 277.755,200.059 277.75,201.496C277.747,203.085 278.498,204.983 278.754,206.563C280.184,215.371 280.885,224.179 283.609,232.722C284.896,236.754 286.503,240.684 287.738,244.728C288.347,246.71 288.315,248.802 289.02,250.794C292.075,259.387 303.907,255.904 310.712,255.511C316.159,255.196 321.61,254.909 327.058,254.568C332.792,254.211 339.795,254.689 345.114,252.292C348.087,250.951 348.069,246.032 348.752,243.306C349.341,240.934 350.625,238.727 351.687,236.544C353.111,233.616 354.304,230.609 355.283,227.504C356.03,225.149 356.568,222.735 357.058,220.316C357.369,218.785 357.306,216.913 358.002,215.51C360.063,211.36 363.379,202.979 357.428,200.627C357.535,200.669 358.682,198.612 359.082,198.772C364.99,201.104 361.711,209.345 359.792,213.452C358.257,216.74 358.229,221.133 357.242,224.689C356.212,228.409 354.707,231.961 353.021,235.426C351.936,237.659 350.822,239.835 350.218,242.256C349.562,244.879 349.483,247.804 347.841,250.073C343.276,256.384 335.72,255.721 328.56,256.216C322.524,256.634 316.482,256.95 310.441,257.287C305.231,257.581 299.858,258.398 294.644,258.24C288.264,258.047 287.067,251.945 286.182,246.966C285.521,243.234 283.588,239.466 282.383,235.884C280.844,231.324 279.78,226.788 279.031,222.038C278.365,217.805 277.861,213.544 277.232,209.303C276.885,206.952 275.225,203.173 276.637,201.004C277.587,199.544 279.056,198.038 280.816,197.681C281.368,197.571 281.313,199.24 281.605,199.774C282.41,201.229 284.854,201.258 286.251,201.325C291.917,201.598 297.775,200.341 303.313,199.336C316.786,196.89 330.303,195.424 344.002,196.378C349.005,196.723 354.269,197.263 359.082,198.772C358.917,198.719 357.887,200.771 357.428,200.627Z" style="fill:rgb(61,0,235);fill-rule:nonzero;"/>
            <path d="M294.21,227.733C294.131,230.328 295.934,232.487 298.243,232.558C300.551,232.628 302.488,230.584 302.565,227.99C302.646,225.396 300.84,223.236 298.532,223.166C296.224,223.095 294.289,225.138 294.21,227.733Z" style="fill:white;fill-rule:nonzero;"/>
            <path d="M294.694,228.82C294.732,230.609 295.249,230.557 296.754,231.57C297.434,232.03 298.765,231.64 299.559,231.614C301.243,231.556 302.679,230.379 302.796,228.93C302.938,227.2 302.687,224.742 301.295,223.803C300.613,223.343 298,223.546 297.206,223.574C295.521,223.632 295.14,225.791 295.021,227.239C294.961,227.974 293.421,227.734 293.061,227.257C293.241,225.074 294.404,223.592 297.045,222.913C300.658,221.986 303.324,223.667 303.395,227.062C303.438,229.174 302.49,232.413 300.131,232.961C296.5,233.806 293.223,231.51 293.152,228.115C293.139,227.418 294.604,228.16 294.694,228.82Z" style="fill:rgb(61,0,235);fill-rule:nonzero;"/>
            <path d="M318.389,304.242C318.321,306.453 319.862,308.295 321.829,308.356C323.799,308.416 325.45,306.672 325.517,304.461C325.584,302.248 324.045,300.404 322.075,300.346C320.107,300.285 318.456,302.027 318.389,304.242Z" style="fill:white;fill-rule:nonzero;"/>
            <path d="M318.676,303.584C318.709,305.109 318.743,306.83 320.026,307.695C320.608,308.088 322.06,308.139 322.735,308.117C324.231,308.066 324.623,306.41 324.897,305.156C325.895,300.592 319.076,298.949 318.703,303.481C318.659,304.031 317.801,304.539 317.768,304.938C317.916,303.147 319.139,301.16 320.729,300.223C323.468,298.613 326.079,300.873 326.139,303.766C326.175,305.496 324.653,307.609 323.178,308.477C320.44,310.09 317.828,307.832 317.768,304.938C317.757,304.412 318.683,303.936 318.676,303.584Z" style="fill:rgb(61,0,235);fill-rule:nonzero;"/>
            <path d="M350.704,223.953C350.722,225.639 351.104,227.33 352.512,228.395C353.147,228.875 353.976,228.784 354.656,228.474C354.403,228.741 354.938,228.152 355.225,227.664C355.514,226.998 355.712,226.133 355.763,225.424C355.878,223.785 355.632,222.025 353.891,221.348C353.146,221.061 351.853,221.165 351.175,221.474C351.428,221.21 351.41,221.321 351.122,221.81C350.835,222.475 350.757,223.245 350.704,223.953C350.653,224.684 349.087,225.283 349.049,225.808C349.22,223.395 350.043,221.329 352.378,220.81C355.732,220.064 356.785,224.324 356.782,224.139C356.76,221.792 355.62,228.854 353.876,230.292C351.084,232.592 349.068,227.969 349.049,225.808C349.041,225.105 350.71,224.429 350.704,223.953Z" style="fill:rgb(61,0,235);fill-rule:nonzero;"/>
            <path d="M338.343,267.248C338.343,267.248 340.617,274.231 339.325,280.274C338.033,286.318 336.269,285.297 334.326,285.512C332.381,285.731 308.683,287.629 308.683,287.629C308.683,287.629 303.133,288.289 302.941,285.518C302.75,282.746 304.019,277.391 304.049,276.426C304.079,275.461 303.545,270.326 304.267,269.381C304.988,268.436 338.343,267.248 338.343,267.248Z" style="fill:white;fill-rule:nonzero;"/>
            <path d="M338.965,266.553C340.531,271.543 341.771,280.324 338.083,284.731C336.086,287.113 333.681,286.223 330.761,286.473C324.875,286.973 318.984,287.445 313.095,287.92C310.3,288.145 304.316,289.531 302.473,286.836C301.136,284.885 303.2,279.299 303.43,277.121C303.653,274.977 302.432,271.9 303.699,269.953C305.044,267.885 307.508,268.197 309.743,268.014C319.458,267.213 329.227,266.9 338.965,266.553C338.642,266.565 338.227,267.926 337.722,267.943C330.092,268.217 322.464,268.545 314.841,268.981C311.318,269.184 308.545,269.186 305.065,269.838C304.378,270.076 304.495,270.566 304.509,271.295C304.479,272.635 304.603,273.986 304.665,275.322C304.801,278.147 303.701,281.086 303.547,283.918C303.246,289.451 321.152,285.977 323.919,285.75C327.594,285.449 331.279,285.199 334.945,284.816C336.365,284.668 337.282,284.74 337.995,283.066C339.009,280.691 339.126,278.287 339.071,275.744C339.021,273.139 338.503,270.432 337.722,267.943C337.597,267.549 339.024,266.74 338.965,266.553Z" style="fill:rgb(103,0,226);fill-rule:nonzero;"/>
            <path d="M298.394,224.526C298.394,224.526 300.227,225.763 301.184,228.323L300.849,228.65C300.849,228.65 298.08,224.796 297.947,224.699L298.394,224.526Z" style="fill:rgb(103,0,226);fill-rule:nonzero;"/>
            <path d="M301.342,225.481C301.342,225.481 300.005,227.238 297.393,228.05L297.087,227.696C297.087,227.696 301.09,225.151 301.194,225.025L301.342,225.481Z" style="fill:rgb(103,0,226);fill-rule:nonzero;"/>
            <path d="M324.528,302.383C324.528,302.383 323.383,304.272 320.869,305.352L320.528,305.031C320.528,305.031 324.244,302.082 324.335,301.943L324.528,302.383Z" style="fill:rgb(103,0,226);fill-rule:nonzero;"/>
            <path d="M323.716,305.373C323.716,305.373 321.897,304.119 320.962,301.549L321.302,301.227C321.302,301.227 324.033,305.106 324.166,305.205L323.716,305.373Z" style="fill:rgb(103,0,226);fill-rule:nonzero;"/>
            <path d="M354.828,221.795C354.828,221.795 354.793,223.73 353.592,225.666L353.261,225.578C353.261,225.578 354.539,221.695 354.545,221.551L354.828,221.795Z" style="fill:rgb(103,0,226);fill-rule:nonzero;"/>
            <path d="M355.406,224.413C355.406,224.413 353.796,224.279 352.265,222.758L352.362,222.364C352.362,222.364 355.508,224.069 355.629,224.086L355.406,224.413Z" style="fill:rgb(103,0,226);fill-rule:nonzero;"/>
            <path d="M453.685,89.535C447.898,81.101 440.854,72.745 432.896,66.397C416.803,53.562 397.206,52.407 378.761,60.052C378.941,59.966 379.722,59.343 380.043,59.19C398.187,50.521 416.881,53.762 432.903,64.979C441.44,70.957 449.475,79.337 455.392,87.964C455.491,88.11 453.495,88.977 454.306,88.926L453.685,89.535Z" style="fill:rgb(103,0,226);fill-rule:nonzero;"/>
            <path d="M521.892,342.139C514.015,342.127 505.921,344.139 498.447,346.381C478.599,352.336 461.234,363.941 446.036,377.881C413.768,407.465 386.832,446.652 387.544,491.922C387.555,492.623 385.881,493.307 385.889,493.779C385.232,452.076 407.638,415.305 435.773,386.221C458.476,362.754 488.724,341.822 522.55,340.311C522.882,340.293 523.216,340.283 523.547,340.283C523.145,340.283 522.547,342.141 521.892,342.139Z" style="fill:rgb(103,0,226);fill-rule:nonzero;"/>
            <path d="M367.383,354.592C373.353,353.58 379.947,354.762 385.4,357.227C400.079,363.867 404.174,380.754 404.254,395.363C404.254,395.541 403.381,396.305 403.38,396.426C403.297,381.75 399.736,365.057 385.487,357.934C380.023,355.199 373.044,354.025 366.969,355.053C367.095,355.033 367.203,354.621 367.383,354.592Z" style="fill:rgb(103,0,226);fill-rule:nonzero;"/>
            <path d="M431.806,451.791C431.806,451.791 437.012,460.107 457.675,471.525C457.675,471.525 440.043,464.971 430.071,454.225L431.806,451.791Z" style="fill:rgb(103,0,226);fill-rule:nonzero;"/>
        </g>
    </g>
</svg>
